<svg id="Layer_1" xmlns="http://www.w3.org/2000/svg" viewBox="0 0 483.8 519.2">
  <style>
<![CDATA[
	.st0{fill-rule:evenodd;clip-rule:evenodd;}
]]>
  </style>
  <path class="st0" d="M312 323.2c-19-1.7-36.3 3.2-53.3 9.2-24.5 8.6-46.8 21.4-69 34.6-24.6 14.6-48.6 30.3-75 41.5-18 7.6-36.6 12.8-56.2 12-10-.4-20-2-29.3-5C7.6 408.8-2.5 391.2 1.5 369c4-22.8 15.3-42 29.8-59 10.7-13 22-25 36-34.4 3.5-2.3 7.6-3.7 12-4.7-6.5 7-11.4 15-20.7 18.8-5 2-10 5.2-13.2 9.3-13 16-22.7 33.7-25.7 54.4C17 373.2 25.3 388.7 44 396c20.6 8 42 7.6 63.2 2.3 25.7-6.4 48.5-19 71-32.6 29-17.5 58-35.3 89.4-48.4 14.7-6 30-9.8 45.7-11.8 3.7-.5 5.7-1.6 7.2-5.3C341 249 370 202.7 403 158.8c6.4-8.4 12.4-17 15.2-27.4 4.7-17.3.5-32.2-12.3-44.7l-5.6-5c6-5.5 11.6-11 17.5-16 .6-.7 3.2.3 4.4 1.2 2.5 1.8 4.4 4.5 7 6.4 6.7 5 14 4.8 22 2.3-4 3.3-8.3 6.6-12.2 10-1 1-2.2 3-2 4 4.5 19-3 34.6-13.4 49.4-11.5 16.3-23.4 32-34.2 48.7-22.7 34.4-42.4 70.4-56 109.5l-2.4 7.5c9.4 0 18-.6 26.5 0 37 3.4 71.6 13.6 100.5 38.3 9.6 8.2 17.2 18 21.8 30 5.6 14.4 4.5 28.3-5.2 40.6-11.7 15-25 28-42.3 36.6-25.8 12.8-51.5 11-77-1-5.3-2.2-10.4-5.4-14.8-8.3-19-13-29.6-32.4-32.6-55.6-3-20.6-2.6-41.4 4-62.2zm14-.6c-4 18.2-6 36-1.7 54 6.4 26 24 42.7 47.3 54 28.4 13.8 56.7 14.8 84.2-2.3 2.4-1.5 4.5-4 5.7-6.6 5.5-12.4 3.3-24.4-2.5-36-8-16-20.8-27.2-35.5-36.3-29.7-18.4-62.5-25.6-97.4-26.8z"/>
  <path class="st0" d="M321 422c-30-45-52.6-99.5-70-151C230 370.4 175 448 106 517c-.5.2-3.2 2.2-3.4 2-.2 0 1.3-3 1.5-3.2 5.6-6 11.3-12 16.7-18 48-53.7 86-113 105.3-183 9.6-34.4 12.3-69.3 6-104.7 0-1-.3-3 .4-3.7 5.3-5.8 10.8-11.5 17-18 4 13.8 7.3 26 11.2 38 7.5 22.8 15 45.8 23 68.5 6 16.4 12.7 32.5 19.7 48.5 5 9.4 5.2 12 5 17C308 381 313 403 321 422z"/>
  <path class="st0" d="M435.4 41.4c-3.4 4-6.6 8-10.4 11.8-5.5 5.3-11.6 10-17 15.3-3.7 3.7-6.3 8.5-10 12.3-7.7 8-15.3 16.2-23.7 23.3-6.7 5.7-15.2 7.3-25.2 6.2l8.5-9.6c2.3-2.4 4.7-4.7 7.3-6.7 1.3-1 3.3-1.4 5-2h.4c15 .2 18.6-2.7 22.3-18.2-1.8 0-3.6 0-5.2-.3-5.6-1.3-11.6-2-16.7-4.4-12.3-5.7-16-15.8-11-28.5C366 24.7 378 13.7 391.2 4c5-3.8 11.3-4 17-3 7.7 1.7 15.3 4.7 23 7l.6 2.4c-5.6 5.2-11 10.5-16.8 15.4-1 .8-3.4.4-5-.3-7.8-3.5-15.8-6.8-24.7-6.8-3.7 0-6 1.2-7.3 5-4.2 11.5-1.2 20.6 9.6 26.6 8.8 5 18 6 28 4 6-1.2 9.4-6 13.6-9.5l5-4.7 1.4 1.4z"/>
  <path class="st0" d="M81.7 307.7c8.3-8.4 16-16.4 24.2-24.5 8.3 7 16 13 24.4 19.8-3 3.4-6 6.5-9 9.5-4 4.2-8.2 8.3-12.4 12.3-1.6 1.5-3 2.7-5.5.7l-21.8-17.8z"/>
  <path class="st0" d="M235 404l-18.8-15.4 18.5-18c5 4 11.7 9.5 16.7 13.8.5.4.6.7-.2 1.5L235 404z"/>
  <path class="st0" d="M287.5 382l-18 18.2c-5.5-4.4-12.2-9.7-17-14-1-1-1-1.2 0-2 4-4.8 11.3-12 16-16.2 1-.8 1-.5 2 .3 5 3.7 11.3 9 17 13.7z"/>
</svg>
